<?xml version="1.0" standalone="no"?>
<!DOCTYPE svg PUBLIC "-//W3C//DTD SVG 20010904//EN"
 "http://www.w3.org/TR/2001/REC-SVG-20010904/DTD/svg10.dtd">
<svg version="1.0" xmlns="http://www.w3.org/2000/svg"
 width="500.000000pt" height="500.000000pt" viewBox="0 0 500.000000 500.000000"
 preserveAspectRatio="xMidYMid meet">
<metadata>
Created by potrace 1.14, written by Peter Selinger 2001-2017
</metadata>
<g transform="translate(0.000000,500.000000) scale(0.100000,-0.100000)"
fill="#000000" stroke="none">
<path d="M466 4984 c-10 -26 4 -37 25 -18 10 9 19 21 19 26 0 15 -38 8 -44 -8z"/>
<path d="M1406 4983 c-6 -14 -5 -15 5 -6 7 7 10 15 7 18 -3 3 -9 -2 -12 -12z"/>
<path d="M620 4980 c0 -5 4 -10 9 -10 6 0 13 5 16 10 3 6 -1 10 -9 10 -9 0
-16 -4 -16 -10z"/>
<path d="M1215 4970 c-3 -5 -1 -10 4 -10 6 0 11 5 11 10 0 6 -2 10 -4 10 -3 0
-8 -4 -11 -10z"/>
<path d="M650 4937 c0 -21 -7 -36 -20 -45 -11 -6 -17 -18 -14 -26 3 -9 -3 -17
-15 -21 -12 -3 -21 -15 -21 -25 0 -13 -9 -22 -25 -26 -14 -3 -25 -9 -25 -13 0
-6 61 -44 65 -39 1 2 10 21 19 43 10 22 29 54 42 72 20 27 22 36 13 60 -7 19
-7 29 0 31 13 4 5 22 -10 22 -5 0 -9 -15 -9 -33z"/>
<path d="M421 4934 c0 -11 3 -14 6 -6 3 7 2 16 -1 19 -3 4 -6 -2 -5 -13z"/>
<path d="M1301 4941 c-14 -4 -26 -12 -29 -19 -3 -9 4 -9 27 -1 17 6 34 15 37
20 6 10 0 10 -35 0z"/>
<path d="M376 4868 l-17 -33 20 24 c18 20 27 41 18 41 -1 0 -11 -15 -21 -32z"/>
<path d="M545 4880 c3 -5 12 -7 20 -3 21 7 19 13 -6 13 -11 0 -18 -4 -14 -10z"/>
<path d="M2215 4879 c-22 -4 -70 -8 -106 -8 -39 -1 -90 -9 -125 -21 -58 -20
-118 -65 -108 -81 5 -9 -15 -14 -90 -24 -36 -5 -46 -9 -35 -16 11 -8 9 -9 -7
-7 -30 4 -104 -50 -104 -77 0 -15 -13 -28 -41 -44 -22 -13 -43 -30 -46 -38 -3
-8 -17 -19 -32 -24 -19 -8 -22 -12 -12 -19 11 -6 10 -11 -7 -25 -15 -14 -17
-21 -9 -30 7 -7 17 -10 22 -7 6 3 2 -4 -7 -15 -10 -11 -18 -25 -18 -32 0 -14
-17 -32 -45 -49 -11 -6 -15 -12 -10 -12 6 0 17 -4 25 -10 12 -7 11 -12 -5 -31
-18 -20 -18 -22 -2 -16 11 4 17 1 17 -9 0 -11 -6 -14 -17 -10 -16 5 -16 5 -2
-6 16 -13 16 -20 6 -90 -5 -29 -3 -38 9 -38 13 0 13 -4 -1 -29 -11 -23 -12
-30 -2 -34 8 -3 4 -13 -12 -31 -23 -24 -23 -26 -5 -27 10 -1 22 -1 27 0 11 2
8 -14 -5 -27 -9 -9 -8 -12 6 -12 9 0 14 -5 11 -10 -4 -6 -10 -8 -14 -6 -4 3
-8 -4 -8 -16 -1 -13 3 -18 13 -14 12 5 12 1 0 -27 -12 -30 -11 -35 5 -56 11
-13 19 -35 19 -49 0 -14 3 -22 7 -18 7 6 15 -40 37 -204 10 -67 29 -150 36
-150 5 0 11 -28 15 -62 4 -34 11 -74 16 -90 9 -34 3 -58 -17 -58 -47 0 -59
-132 -23 -260 11 -41 45 -121 75 -178 52 -100 53 -104 39 -132 -24 -47 -19
-95 11 -119 15 -12 35 -21 44 -21 13 0 21 -14 30 -52 7 -29 16 -57 20 -63 4
-5 13 -31 21 -57 7 -27 16 -48 19 -48 4 0 17 -23 30 -50 13 -28 27 -50 32 -50
4 0 7 -3 6 -7 -1 -5 4 -20 10 -34 6 -15 8 -44 5 -65 -7 -54 19 -109 111 -231
83 -112 91 -119 109 -106 7 5 18 8 25 7 6 -1 20 -2 30 -3 10 0 46 -19 80 -41
72 -47 90 -52 42 -10 -19 16 -31 29 -27 30 5 0 -14 18 -42 40 -29 23 -49 45
-46 50 4 6 -1 10 -9 10 -9 0 -16 5 -16 10 0 19 39 5 82 -29 15 -12 18 -11 24
5 4 11 9 22 10 25 2 3 -8 5 -22 3 -14 -1 -23 0 -20 3 3 4 -1 14 -10 24 -12 14
-13 19 -2 25 24 15 48 15 42 0 -3 -9 3 -17 15 -21 13 -4 18 -11 14 -18 -4 -8
-1 -7 9 1 14 11 18 10 27 -5 6 -10 11 -13 11 -7 0 6 7 11 15 11 8 0 12 -4 9
-8 -5 -9 35 -23 43 -15 4 3 2 6 -4 6 -5 0 -8 15 -5 32 4 32 4 32 -12 13 -17
-20 -17 -20 -6 3 9 19 22 27 34 20 6 -4 46 34 46 44 0 5 -4 6 -10 3 -5 -3 -10
-1 -10 4 0 6 5 11 10 11 6 0 10 9 10 20 0 13 5 18 15 14 10 -4 15 0 15 11 0 9
-5 14 -12 10 -7 -3 -3 2 10 11 l22 17 -21 18 c-22 19 -22 19 -2 19 12 0 24 7
27 15 3 10 1 15 -7 13 -22 -4 -68 12 -62 23 4 5 3 9 -2 8 -20 -3 -24 2 -13 16
11 14 10 14 -13 6 -21 -8 -25 -7 -20 4 3 8 0 15 -6 15 -6 0 -8 7 -5 15 4 8 10
15 15 15 4 0 6 -7 3 -15 -4 -11 -2 -13 9 -9 18 6 11 40 -9 48 -8 3 -14 1 -14
-4 0 -17 -36 -11 -54 9 -15 17 -15 20 -2 34 8 8 12 18 8 21 -3 4 1 4 11 0 9
-3 14 -11 10 -18 -4 -6 -8 -16 -9 -23 -3 -16 33 6 41 25 3 8 0 10 -7 6 -7 -4
-8 -3 -4 4 9 15 46 16 46 1 0 -5 4 -7 10 -4 5 3 23 8 40 10 74 9 90 16 87 38
-2 17 5 22 36 28 20 3 39 8 42 10 11 12 -16 30 -56 37 -28 6 -43 13 -41 22 2
9 -9 11 -47 8 -44 -4 -50 -3 -60 19 -23 49 -5 83 27 51 9 -9 15 -8 25 7 10 13
21 16 39 12 28 -7 98 9 98 23 0 6 -6 10 -12 10 -141 6 -204 14 -215 29 -8 10
-12 12 -13 4 0 -17 -78 -73 -93 -68 -7 3 -23 -3 -35 -13 -22 -17 -23 -21 -12
-60 6 -23 15 -42 21 -42 6 0 7 -5 4 -10 -3 -6 2 -14 12 -18 25 -10 28 -33 3
-29 -11 2 -23 6 -26 10 -11 10 -26 9 -20 -2 5 -8 17 -78 19 -108 0 -7 4 -13 9
-13 5 0 7 -4 3 -9 -3 -5 11 -15 30 -22 32 -12 40 -20 36 -41 0 -5 5 -8 12 -8
30 0 67 -26 72 -52 5 -19 11 -25 22 -21 12 5 15 2 10 -10 -3 -8 -1 -18 6 -21
7 -3 2 -3 -11 0 -16 4 -28 0 -36 -11 -10 -14 -16 -15 -34 -6 -14 7 -22 8 -22
2 0 -6 -10 -15 -22 -21 -21 -10 -21 -10 -5 3 21 17 22 27 3 27 -9 0 -13 11
-12 33 1 30 -1 32 -29 29 l-30 -3 23 16 c17 13 21 20 13 28 -14 14 -14 30 -1
22 6 -3 10 -2 10 3 0 6 -7 13 -16 16 -23 9 -26 8 -18 -6 5 -7 2 -9 -9 -5 -9 3
-18 0 -21 -9 -3 -8 0 -14 6 -14 6 0 9 -2 7 -5 -3 -2 -18 0 -35 4 -24 8 -25 9
-6 10 26 1 30 20 5 22 -27 2 -56 6 -73 10 -8 2 -14 -2 -12 -9 1 -8 -2 -11 -8
-7 -17 10 -11 25 13 35 16 6 18 9 5 9 -13 1 -17 9 -16 34 2 44 -9 62 -27 47
-8 -6 -11 -19 -8 -28 4 -13 2 -14 -5 -4 -5 7 -8 36 -7 63 2 42 0 49 -13 44
-12 -5 -12 -1 3 15 10 11 13 20 7 20 -6 0 -9 7 -6 15 5 11 -1 15 -20 15 -20 0
-26 5 -26 23 0 12 -9 30 -20 40 -11 9 -20 12 -20 7 0 -6 -7 -10 -15 -10 -14 0
-14 -3 0 -29 16 -33 12 -56 -12 -65 -13 -5 -14 -1 -10 23 8 37 -9 50 -29 25
-14 -18 -15 -17 -8 6 4 14 9 31 12 39 3 9 1 12 -6 7 -7 -4 -12 -1 -12 8 0 8 4
18 10 21 10 6 8 27 -5 59 -5 11 -3 21 5 26 7 4 9 16 6 27 -4 12 -1 25 9 33 8
7 12 17 9 22 -3 5 1 17 10 27 9 10 17 31 18 47 1 16 5 31 8 34 8 8 42 102 45
128 2 14 -5 28 -18 37 -18 13 -19 15 -4 21 23 9 23 54 0 54 -17 1 -16 2 1 15
22 17 38 11 29 -10 -3 -9 1 -15 11 -15 9 0 16 5 16 10 0 6 7 10 16 10 8 0 12
-4 9 -10 -3 -5 4 -10 17 -11 40 -1 82 -9 121 -21 30 -9 37 -16 34 -30 -3 -10
0 -18 7 -18 18 0 19 -69 2 -105 -8 -16 -16 -66 -17 -110 -2 -65 -6 -84 -23
-103 -15 -17 -17 -23 -6 -20 9 2 16 -6 18 -21 2 -15 0 -21 -7 -17 -6 4 -11 0
-11 -11 1 -16 3 -15 20 5 10 13 17 29 14 36 -3 8 -1 17 5 21 7 3 8 0 5 -9 -3
-9 -1 -16 6 -16 6 0 8 -4 5 -10 -3 -5 -8 -20 -10 -32 -4 -19 -2 -21 8 -8 7 8
19 16 27 18 11 3 11 -1 -3 -16 -17 -19 -17 -19 7 -15 13 3 33 13 44 23 22 21
58 27 86 15 13 -6 21 -4 24 3 2 7 10 12 18 12 8 0 14 5 14 10 0 6 5 9 12 8 7
-2 13 7 14 20 1 12 4 26 8 29 3 4 0 13 -7 22 -7 9 -18 33 -25 53 -11 31 -10
44 6 92 13 40 19 88 20 173 1 65 5 141 8 168 7 71 -15 103 -95 134 -55 22 -83
27 -168 30 -13 1 -22 4 -21 9 5 26 -17 41 -75 47 -34 4 -73 12 -87 17 -14 5
-51 11 -83 12 -37 2 -62 8 -68 17 -13 20 -11 26 13 48 21 20 21 20 38 1 23
-26 30 -25 70 10 33 29 76 129 61 140 -14 10 -21 40 -8 41 7 0 1 5 -12 10 -19
7 -22 12 -13 21 17 17 15 29 -5 26 -12 -2 -18 4 -19 20 -1 12 3 22 7 22 5 0 9
20 9 44 0 25 4 47 9 51 6 3 7 35 4 73 -4 55 -2 71 11 84 9 9 16 21 16 27 0 5
14 18 30 28 17 9 30 21 30 25 0 4 11 8 23 8 13 0 34 9 47 20 13 11 31 20 42
20 10 0 17 3 17 8 -4 21 3 30 25 36 20 5 23 11 20 33 -4 28 -4 28 48 26 48 -2
51 0 34 13 -11 8 -15 14 -9 14 7 0 18 -7 27 -15 8 -8 18 -15 23 -15 4 1 -10
17 -32 36 -22 20 -34 33 -27 29 6 -3 12 -2 12 2 0 5 -6 15 -12 22 -7 7 1 4 19
-6 23 -13 28 -19 17 -23 -10 -4 -6 -10 16 -23 l30 -18 -9 24 c-6 14 -7 28 -4
31 3 3 -2 8 -11 12 -9 3 -16 11 -16 17 0 6 11 0 25 -13 14 -13 23 -26 20 -28
-8 -8 26 -42 41 -42 7 0 18 9 24 20 9 17 14 18 32 7 15 -8 22 -9 25 -1 2 6 15
9 28 6 23 -4 24 -3 14 33 -6 20 -8 39 -5 43 3 3 6 -1 6 -10 0 -21 34 -58 54
-58 10 0 15 4 11 9 -3 5 -1 12 5 16 5 3 10 1 10 -5 0 -6 5 -8 10 -5 6 4 8 12
4 18 -3 7 1 4 9 -6 8 -10 18 -14 21 -9 13 22 -35 129 -54 117 -4 -3 -6 4 -3
15 3 11 10 20 15 20 5 0 6 -4 3 -10 -3 -5 0 -7 9 -4 9 3 17 -2 21 -15 3 -12
11 -21 17 -21 5 0 8 -7 4 -15 -9 -25 10 -60 34 -62 16 -1 20 2 16 13 -3 9 -6
22 -6 29 0 7 -14 27 -31 44 -17 17 -28 31 -24 31 4 0 -3 12 -14 26 -27 34 -27
48 0 34 11 -7 23 -9 27 -6 3 3 16 -13 30 -36 21 -38 28 -56 31 -79 1 -4 14
-21 29 -39 41 -46 49 -17 11 38 -31 45 -35 57 -19 47 6 -3 10 -4 10 -1 0 3
-12 12 -27 19 -28 15 -38 53 -16 61 7 3 13 1 13 -4 0 -6 5 -10 10 -10 6 0 9 3
9 8 -8 48 5 44 69 -23 36 -38 59 -58 49 -43 -28 44 -19 56 14 18 16 -19 27
-28 24 -19 -4 10 -1 20 6 25 8 5 10 3 4 -6 -5 -9 -4 -11 4 -6 12 8 8 19 -17
48 -8 9 -11 23 -6 30 4 7 4 10 -1 6 -8 -8 -55 36 -55 50 0 4 6 0 13 -9 7 -9
23 -19 37 -22 14 -3 48 -27 76 -52 51 -44 52 -44 50 -18 -1 33 -58 96 -106
118 -19 9 -51 25 -70 35 -68 36 -296 110 -435 141 -44 9 -107 24 -140 32 -66
16 -128 18 -190 6z m475 -351 c18 -20 19 -21 14 -3 -6 16 -4 18 6 8 7 -7 14
-25 16 -40 1 -15 5 -38 8 -51 3 -12 1 -20 -3 -17 -5 3 -12 -2 -15 -11 -3 -8
-2 -12 3 -9 5 3 13 0 17 -6 4 -8 3 -9 -4 -5 -7 4 -12 1 -12 -6 -1 -7 -7 -2
-15 12 -8 14 -11 37 -8 54 4 19 3 27 -5 23 -10 -7 -44 54 -57 103 l-6 25 21
-27 c11 -14 29 -37 40 -50z m-83 -5 c-4 -3 3 -21 14 -40 12 -19 19 -37 16 -39
-3 -3 -15 12 -26 34 -18 35 -19 52 -3 52 3 0 2 -3 -1 -7z m-54 -63 c3 -11 1
-18 -4 -14 -5 3 -9 12 -9 20 0 20 7 17 13 -6z m47 -35 c0 -12 -19 -12 -23 0
-4 9 -1 12 9 8 7 -3 14 -7 14 -8z m-32 -20 c-3 -3 -9 2 -12 12 -6 14 -5 15 5
6 7 -7 10 -15 7 -18z m-358 -1044 l25 -8 -30 -6 c-16 -3 -48 -8 -70 -12 -97
-13 -120 -17 -143 -26 -41 -16 -48 6 -10 28 18 11 40 23 48 26 22 8 151 6 180
-2z m92 -64 c21 -11 37 -22 35 -23 -1 -2 -29 6 -62 17 -33 11 -70 20 -82 21
-12 1 -19 6 -17 10 8 13 86 -3 126 -25z m-78 -25 c2 -4 1 -14 -4 -22 -7 -11
-12 -12 -21 -3 -6 6 -8 16 -5 22 8 13 23 14 30 3z m74 -19 c13 -21 13 -23 -7
-23 -28 0 -27 -14 2 -27 21 -10 20 -12 -23 -29 -25 -10 -48 -18 -52 -16 -5 1
-8 -2 -8 -7 0 -13 -78 -7 -92 7 -9 9 -5 12 18 12 31 0 73 19 44 20 -8 1 1 6
20 13 26 9 37 20 44 45 10 37 31 39 54 5z m-288 -142 c0 -5 -14 -14 -32 -20
-31 -11 -31 -11 -13 9 19 21 45 27 45 11z m-20 -77 c0 -8 -4 -12 -10 -9 -5 3
-10 10 -10 16 0 5 5 9 10 9 6 0 10 -7 10 -16z m425 -200 c-12 -24 -11 -42 4
-69 3 -6 -2 -2 -11 8 -22 24 -22 36 -2 65 21 30 26 28 9 -4z m-488 -456 c-3
-8 -6 -5 -6 6 -1 11 2 17 5 13 3 -3 4 -12 1 -19z m46 -5 c0 -4 11 -16 23 -25
21 -17 23 -32 7 -78 -4 -11 -7 -9 -14 8 -5 14 -5 31 1 42 7 13 6 20 -6 24 -11
4 -15 2 -11 -7 3 -8 1 -20 -4 -28 -7 -11 -9 -9 -9 8 0 12 -4 25 -10 28 -6 4
-5 13 2 25 12 19 19 20 21 3z m47 -13 c0 -5 -2 -10 -4 -10 -3 0 -8 5 -11 10
-3 6 -1 10 4 10 6 0 11 -4 11 -10z m66 -2 c5 4 5 3 1 -3 -5 -5 -14 -10 -20
-10 -7 0 -11 -13 -10 -30 2 -25 0 -27 -8 -12 -15 26 -3 72 15 58 7 -6 17 -7
22 -3z m261 -25 c3 -7 -8 -11 -29 -11 -18 1 -27 3 -20 5 6 3 9 9 6 15 -4 6 3
8 17 6 12 -1 24 -8 26 -15z m53 -336 c0 -2 -10 -12 -22 -23 l-23 -19 19 23
c18 21 26 27 26 19z m-192 -104 c-2 -21 -4 -22 -14 -9 -6 9 -19 16 -28 16 -14
0 -14 3 -4 13 19 21 48 9 46 -20z"/>
<path d="M46 4848 c-8 -39 -5 -42 33 -33 32 7 33 28 3 53 -23 18 -29 15 -36
-20z"/>
<path d="M1228 4869 c-10 -5 -18 -7 -18 -2 0 4 -7 -3 -16 -15 -19 -28 -8 -45
11 -18 8 10 18 15 24 12 11 -7 51 14 51 26 0 11 -32 9 -52 -3z"/>
<path d="M1085 4852 c-38 -21 -75 -53 -75 -66 0 -5 9 -1 21 10 17 15 23 16 40
6 16 -10 19 -9 19 7 0 11 7 27 16 36 23 23 14 26 -21 7z"/>
<path d="M163 4823 c-20 -7 -3 -33 22 -33 21 0 43 16 34 24 -9 8 -45 14 -56 9z"/>
<path d="M1126 4775 c-4 -13 12 -45 24 -45 5 0 15 13 23 28 14 29 14 29 -14
28 -16 -1 -31 -5 -33 -11z"/>
<path d="M941 4757 c-6 -16 -11 -33 -11 -38 0 -5 -4 -9 -8 -9 -14 0 -77 -58
-71 -64 4 -4 31 17 62 46 45 43 54 57 47 73 -7 19 -9 18 -19 -8z"/>
<path d="M310 4750 c-15 -5 -18 -8 -8 -9 9 -1 23 -4 32 -7 11 -4 16 -1 16 10
0 17 -3 18 -40 6z"/>
<path d="M515 4729 c-10 -15 3 -25 16 -12 7 7 7 13 1 17 -6 3 -14 1 -17 -5z"/>
<path d="M240 4720 c0 -5 -7 -10 -15 -10 -8 0 -15 -5 -15 -11 0 -18 45 -5 48
14 2 9 -1 17 -7 17 -6 0 -11 -4 -11 -10z"/>
<path d="M274 4675 c-4 -9 -4 -18 -2 -21 9 -8 39 8 35 19 -6 18 -27 20 -33 2z"/>
<path d="M1080 4641 c0 -25 6 -27 13 -6 4 8 2 17 -3 20 -6 4 -10 -3 -10 -14z"/>
<path d="M100 4630 c-13 -8 -12 -10 3 -10 9 0 17 5 17 10 0 12 -1 12 -20 0z"/>
<path d="M223 4630 c-28 -11 -30 -40 -4 -40 11 0 23 -4 26 -10 3 -5 12 -10 19
-10 10 0 12 9 7 32 -7 36 -16 41 -48 28z"/>
<path d="M748 4597 c-29 -32 -34 -43 -24 -49 21 -12 38 -2 66 40 34 50 34 52
13 51 -10 0 -35 -19 -55 -42z"/>
<path d="M391 4604 c0 -11 3 -14 6 -6 3 7 2 16 -1 19 -3 4 -6 -2 -5 -13z"/>
<path d="M1200 4604 c0 -3 5 -14 11 -25 10 -20 11 -20 24 -2 7 10 11 21 9 25
-6 9 -44 11 -44 2z"/>
<path d="M326 4584 c-4 -9 -4 -19 -1 -22 7 -8 35 19 29 29 -8 14 -21 11 -28
-7z"/>
<path d="M3176 4548 c16 -31 36 -59 44 -63 12 -5 13 -4 3 6 -15 15 -17 33 -3
24 25 -15 6 14 -31 50 l-41 40 28 -57z"/>
<path d="M584 4565 c24 -18 49 -20 44 -2 -3 6 -18 13 -34 15 -28 2 -28 2 -10
-13z"/>
<path d="M152 4558 c-17 -17 -15 -38 3 -38 8 0 15 4 15 9 0 5 3 16 6 25 7 19
-7 21 -24 4z"/>
<path d="M447 4563 c-15 -14 -6 -23 23 -23 32 0 40 14 14 24 -20 8 -29 8 -37
-1z"/>
<path d="M340 4535 c0 -23 2 -24 20 -13 24 15 25 24 4 32 -23 9 -24 8 -24 -19z"/>
<path d="M525 4550 c3 -5 11 -10 16 -10 6 0 7 5 4 10 -3 6 -11 10 -16 10 -6 0
-7 -4 -4 -10z"/>
<path d="M2896 4552 c-3 -6 1 -15 8 -21 8 -7 17 -8 20 -3 3 6 -1 15 -8 21 -8
7 -17 8 -20 3z"/>
<path d="M666 4514 c-11 -28 -6 -39 9 -20 8 11 15 23 15 28 0 14 -18 9 -24 -8z"/>
<path d="M4985 4520 c-3 -5 -1 -10 4 -10 6 0 11 5 11 10 0 6 -2 10 -4 10 -3 0
-8 -4 -11 -10z"/>
<path d="M1110 4499 c0 -5 5 -7 10 -4 6 3 10 8 10 11 0 2 -4 4 -10 4 -5 0 -10
-5 -10 -11z"/>
<path d="M70 4486 c0 -2 7 -6 15 -10 8 -3 15 -1 15 4 0 6 -7 10 -15 10 -8 0
-15 -2 -15 -4z"/>
<path d="M1135 4480 c3 -5 8 -10 11 -10 2 0 4 5 4 10 0 6 -5 10 -11 10 -5 0
-7 -4 -4 -10z"/>
<path d="M2917 4484 c-9 -10 15 -54 26 -47 6 3 7 1 3 -6 -10 -15 13 -43 30
-37 7 3 16 1 20 -5 3 -5 14 -7 25 -4 11 4 19 2 19 -5 0 -7 6 -8 19 -1 14 8 22
7 31 -5 7 -8 21 -13 31 -12 11 2 36 -15 62 -43 42 -45 72 -99 133 -242 26 -62
86 -138 99 -125 3 3 -6 28 -20 56 -28 56 -30 69 -13 74 9 3 4 18 -15 47 -16
24 -24 40 -19 37 6 -3 14 -1 17 5 10 15 65 -39 65 -63 0 -10 4 -18 10 -18 5 0
8 22 5 51 -4 51 -44 129 -65 129 -6 0 -8 11 -4 25 3 14 2 25 -4 25 -5 0 -13
16 -16 35 -4 19 -11 35 -16 35 -5 0 -11 9 -15 20 -5 14 -14 19 -38 17 -18 -1
-34 -5 -37 -8 -5 -7 -43 -12 -68 -10 -7 1 -10 6 -6 13 4 6 3 8 -4 4 -6 -3 -14
0 -19 8 -11 19 -49 25 -45 7 1 -7 0 -22 -4 -33 -6 -19 -6 -19 -27 -1 -14 12
-18 13 -12 3 8 -13 6 -13 -8 -2 -9 8 -20 11 -26 8 -5 -3 -19 9 -30 28 -26 42
-55 57 -47 23 l6 -22 -11 23 c-12 22 -21 27 -32 16z m228 -74 c9 -16 13 -30
11 -30 -3 0 -12 14 -21 30 -9 17 -13 30 -11 30 3 0 12 -13 21 -30z"/>
<path d="M610 4465 c0 -8 5 -15 10 -15 6 0 10 7 10 15 0 8 -4 15 -10 15 -5 0
-10 -7 -10 -15z"/>
<path d="M720 4466 c0 -9 -4 -16 -8 -16 -4 0 -8 -12 -7 -27 0 -20 -7 -31 -27
-41 -16 -7 -28 -18 -28 -23 0 -6 -7 -3 -16 5 -9 10 -13 24 -9 36 9 28 -18 26
-45 -2 -26 -29 -26 -33 10 -60 17 -12 30 -27 30 -32 -1 -22 -38 -56 -54 -50
-11 4 -16 1 -16 -11 0 -18 8 -18 67 6 30 12 34 11 57 -14 14 -15 30 -35 35
-44 9 -16 10 -16 11 5 0 13 6 22 15 22 8 0 15 4 15 9 0 5 -8 8 -17 7 -12 -1
-21 10 -28 32 -5 17 -13 32 -17 32 -4 0 -8 5 -8 11 0 6 7 8 16 5 11 -4 21 6
35 40 17 36 23 43 34 34 15 -12 35 -6 35 11 0 6 -13 15 -30 20 -19 7 -30 18
-30 29 0 11 -4 22 -10 25 -5 3 -10 -1 -10 -9z"/>
<path d="M56 4414 c-7 -24 -8 -25 -25 -10 -23 21 -31 12 -31 -41 0 -52 15 -61
59 -38 26 13 30 20 25 40 -3 14 -1 32 6 40 6 8 9 19 5 25 -12 19 -33 10 -39
-16z"/>
<path d="M540 4425 c-11 -13 -10 -14 4 -9 9 3 16 10 16 15 0 13 -6 11 -20 -6z"/>
<path d="M2860 4424 c0 -13 18 -39 24 -34 2 3 -2 14 -10 24 -8 11 -14 16 -14
10z"/>
<path d="M120 4393 c0 -5 4 -15 10 -23 11 -18 25 -7 17 15 -6 15 -27 21 -27 8z"/>
<path d="M419 4375 c-1 -11 -1 -23 0 -27 0 -5 -4 -8 -10 -8 -6 0 -8 -7 -5 -16
4 -11 1 -14 -12 -10 -26 8 -42 -7 -45 -45 -2 -27 -7 -34 -25 -35 -29 -2 -62
-32 -62 -56 0 -22 -27 -35 -42 -20 -8 8 -6 18 5 35 22 34 10 41 -25 15 -20
-13 -28 -27 -25 -39 5 -18 -14 -41 -43 -53 -8 -3 10 -3 40 1 30 3 63 6 72 5 9
0 22 6 28 13 6 8 18 11 25 9 7 -3 18 4 25 15 6 12 20 21 30 21 11 0 20 3 20 8
0 4 7 15 15 26 13 18 15 18 41 -3 20 -16 30 -18 40 -10 20 16 6 32 -22 25 -13
-4 -24 -2 -24 3 0 16 42 84 67 110 13 13 23 27 23 31 0 15 -28 18 -34 4 -7
-19 -26 -18 -42 4 -13 16 -13 16 -15 -3z"/>
<path d="M1305 4310 c-3 -5 -2 -10 4 -10 5 0 13 5 16 10 3 6 2 10 -4 10 -5 0
-13 -4 -16 -10z"/>
<path d="M11 4286 c-6 -8 -8 -16 -3 -18 5 -1 12 -14 16 -28 7 -24 6 -24 -8 -6
-15 19 -16 17 -16 -28 0 -26 4 -45 9 -41 5 3 12 1 16 -5 3 -5 -1 -10 -9 -10
-13 0 -16 -15 -16 -83 0 -46 3 -86 6 -90 4 -3 22 0 40 8 40 16 46 2 15 -32
-20 -21 -20 -36 -6 -100 10 -42 23 -43 17 -2 -4 29 -3 30 17 20 11 -7 21 -21
21 -32 0 -19 -44 -69 -61 -69 -5 0 -9 -6 -9 -14 0 -7 -9 -16 -20 -19 -16 -4
-20 -14 -20 -53 0 -37 3 -45 12 -36 20 20 30 13 26 -18 -3 -16 -1 -30 3 -30 4
0 9 15 11 32 4 38 38 54 38 18 0 -12 -4 -18 -10 -15 -5 3 -10 2 -10 -3 0 -5
14 -12 32 -16 40 -8 62 10 24 20 -25 6 -37 24 -15 24 14 0 48 41 49 58 0 16
-19 15 -39 -2 -9 -7 -28 -16 -44 -20 -22 -5 -27 -3 -27 11 0 40 13 63 34 63
41 1 55 21 46 70 -5 25 -6 48 -4 52 2 4 0 9 -5 13 -5 3 -14 -2 -18 -10 -8 -13
-12 -11 -24 11 -11 22 -11 28 -1 32 18 6 44 60 32 67 -6 3 -10 13 -10 21 0 8
4 13 9 10 5 -3 8 32 6 79 -2 68 1 85 12 85 9 0 13 7 11 18 -2 9 -10 16 -16 15
-7 -2 -12 2 -12 7 0 6 -14 9 -32 8 -25 -2 -33 1 -36 17 -6 30 -17 38 -31 21z
m73 -75 c7 -10 -33 -23 -46 -15 -5 3 -6 10 -3 15 8 12 42 12 49 0z"/>
<path d="M140 4285 c0 -8 5 -15 10 -15 6 0 10 4 10 10 0 5 7 6 17 3 11 -4 14
-3 9 5 -10 17 -46 15 -46 -3z"/>
<path d="M225 4280 c3 -5 8 -10 11 -10 2 0 4 5 4 10 0 6 -5 10 -11 10 -5 0 -7
-4 -4 -10z"/>
<path d="M3436 4223 c19 -27 42 -56 50 -66 8 -9 14 -22 14 -27 0 -6 5 -10 10
-10 19 0 10 41 -15 66 -14 14 -25 32 -25 41 0 9 -6 13 -15 9 -9 -3 -20 3 -27
14 -7 11 -16 20 -20 20 -4 0 8 -21 28 -47z"/>
<path d="M770 4215 c0 -15 6 -25 14 -25 19 0 27 25 13 39 -18 18 -27 13 -27
-14z"/>
<path d="M516 4203 c-4 -9 -2 -21 4 -27 7 -7 10 -2 10 17 0 31 -5 34 -14 10z"/>
<path d="M3366 4162 c-3 -5 6 -19 20 -31 14 -12 22 -27 18 -33 -4 -7 -3 -8 4
-4 7 4 12 13 12 20 0 17 -47 60 -54 48z"/>
<path d="M4985 4160 c-3 -5 -1 -10 4 -10 6 0 11 5 11 10 0 6 -2 10 -4 10 -3 0
-8 -4 -11 -10z"/>
<path d="M475 4150 c-12 -4 -27 -15 -34 -24 -7 -9 -20 -16 -27 -16 -20 0 -18
-56 2 -64 22 -9 30 0 15 18 -9 11 -8 17 5 30 9 10 24 16 33 14 9 -2 21 7 29
20 18 36 16 38 -23 22z"/>
<path d="M4984 4119 c-3 -6 -1 -16 5 -22 8 -8 11 -5 11 11 0 24 -5 28 -16 11z"/>
<path d="M270 4110 c0 -5 5 -10 10 -10 6 0 10 5 10 10 0 6 -4 10 -10 10 -5 0
-10 -4 -10 -10z"/>
<path d="M3496 4070 c16 -32 34 -48 34 -31 0 6 -5 11 -11 11 -6 0 -9 6 -7 12
3 7 -1 18 -8 25 -21 21 -23 15 -8 -17z"/>
<path d="M3545 4066 c9 -13 23 -27 31 -30 9 -3 6 5 -8 24 -26 36 -45 40 -23 6z"/>
<path d="M550 4070 c0 -5 7 -10 16 -10 8 0 12 5 9 10 -3 6 -10 10 -16 10 -5 0
-9 -4 -9 -10z"/>
<path d="M1038 4049 c4 -28 7 -30 32 -26 15 3 32 1 37 -4 6 -6 14 -5 22 5 18
21 7 33 -35 40 -19 4 -41 9 -48 12 -9 3 -11 -4 -8 -27z"/>
<path d="M490 4060 c0 -5 5 -10 10 -10 6 0 10 5 10 10 0 6 -4 10 -10 10 -5 0
-10 -4 -10 -10z"/>
<path d="M3480 4038 c0 -9 7 -19 16 -22 15 -6 15 -4 3 11 -7 10 -15 20 -16 22
-2 2 -3 -3 -3 -11z"/>
<path d="M937 4033 c-4 -3 1 -12 11 -19 14 -11 15 -16 5 -33 -16 -26 -16 -31
1 -31 26 0 66 41 66 68 0 20 -3 23 -12 14 -15 -15 -48 -16 -48 -2 0 11 -13 13
-23 3z"/>
<path d="M3537 4028 c-2 -7 0 -26 6 -41 12 -37 6 -42 -23 -17 -29 25 -34 25
-27 0 3 -11 1 -18 -4 -14 -8 5 -14 -31 -10 -66 4 -34 34 -120 43 -120 5 0 6
-5 2 -11 -4 -8 -12 -3 -20 12 l-13 24 0 -25 c0 -14 6 -36 14 -50 14 -25 14
-25 15 -2 0 12 5 22 11 22 6 0 9 -6 6 -13 -2 -6 1 -18 9 -24 10 -10 12 -6 7
22 -3 20 -1 35 4 35 6 0 9 47 9 115 -1 63 -4 115 -8 115 -5 0 -8 8 -7 18 0 10
3 12 6 5 2 -7 9 -13 14 -13 6 0 5 8 -1 20 -12 23 -26 26 -33 8z"/>
<path d="M480 4010 c0 -5 5 -10 11 -10 5 0 7 5 4 10 -3 6 -8 10 -11 10 -2 0
-4 -4 -4 -10z"/>
<path d="M420 3986 c0 -2 7 -6 15 -10 8 -3 15 -1 15 4 0 6 -7 10 -15 10 -8 0
-15 -2 -15 -4z"/>
<path d="M190 3959 c0 -24 23 -21 28 4 2 10 -3 17 -12 17 -10 0 -16 -9 -16
-21z"/>
<path d="M260 3918 c0 -39 -14 -66 -24 -49 -4 6 -2 11 3 11 6 0 11 5 11 10 0
6 -8 10 -18 10 -10 0 -23 5 -30 12 -25 25 -12 -21 13 -48 29 -31 32 -44 9 -44
-16 0 -16 -10 3 -75 4 -16 3 -18 -8 -7 -19 18 -29 15 -29 -8 0 -11 -6 -23 -13
-26 -18 -7 -15 -60 6 -100 9 -18 13 -41 10 -54 l-6 -23 21 21 c20 20 20 21 1
58 -21 42 -25 89 -8 100 6 3 24 -6 40 -22 22 -21 32 -25 41 -16 9 9 8 16 -5
30 -9 10 -17 24 -17 30 0 20 27 13 33 -8 10 -38 56 -14 71 38 9 28 -9 29 -24
2 -13 -25 -30 -17 -30 14 0 30 24 51 47 41 10 -4 35 -9 55 -10 34 -3 36 -1 25
16 -9 14 -9 21 1 31 18 18 16 52 -4 44 -9 -3 -20 -6 -25 -6 -5 0 -14 -12 -20
-27 -10 -26 -12 -26 -19 -8 -4 12 -23 24 -46 31 -31 9 -40 16 -42 37 -5 38
-22 34 -22 -5z m58 -50 c-2 -6 -10 -14 -16 -16 -7 -2 -10 2 -6 12 7 18 28 22
22 4z"/>
<path d="M450 3924 c0 -8 5 -12 10 -9 6 3 10 10 10 16 0 5 -4 9 -10 9 -5 0
-10 -7 -10 -16z"/>
<path d="M842 3918 c6 -18 28 -21 28 -4 0 9 -7 16 -16 16 -9 0 -14 -5 -12 -12z"/>
<path d="M3430 3895 c0 -8 2 -15 4 -15 2 0 6 7 10 15 3 8 1 15 -4 15 -6 0 -10
-7 -10 -15z"/>
<path d="M817 3874 c-8 -8 1 -24 14 -24 5 0 9 7 9 15 0 15 -12 20 -23 9z"/>
<path d="M190 3850 c0 -5 5 -10 10 -10 6 0 10 5 10 10 0 6 -4 10 -10 10 -5 0
-10 -4 -10 -10z"/>
<path d="M897 3824 c-15 -15 -7 -45 11 -42 9 2 17 12 17 22 0 20 -16 31 -28
20z"/>
<path d="M166 3781 c-4 -5 -2 -12 3 -15 5 -4 12 -2 15 3 4 5 2 12 -3 15 -5 4
-12 2 -15 -3z"/>
<path d="M706 3725 c-11 -8 -17 -17 -14 -20 2 -3 13 4 23 15 21 23 18 25 -9 5z"/>
<path d="M490 3700 c20 -13 33 -13 25 0 -3 6 -14 10 -23 10 -15 0 -15 -2 -2
-10z"/>
<path d="M635 3650 c-3 -5 -3 -10 2 -10 4 0 19 -3 33 -6 24 -5 24 -5 6 10 -23
19 -32 20 -41 6z"/>
<path d="M483 3613 c-9 -19 -10 -30 -2 -39 13 -16 4 -32 -42 -73 -36 -30 -63
-33 -80 -8 -4 5 -6 -25 -5 -66 1 -62 4 -77 18 -80 12 -4 15 -11 11 -27 -4 -17
-2 -21 8 -18 8 2 15 18 17 34 5 41 20 53 38 30 11 -16 14 -17 14 -4 0 9 -11
23 -25 32 -27 18 -34 46 -11 46 8 0 23 12 34 27 l20 28 37 -18 c36 -17 41 -39
7 -31 -11 3 -21 -4 -29 -23 -7 -15 -13 -30 -13 -35 0 -15 72 35 97 69 22 29
24 37 14 59 -6 14 -16 22 -21 19 -6 -4 -18 -1 -27 7 -15 12 -16 10 -10 -14 8
-32 -2 -41 -27 -23 -27 20 -9 69 25 70 15 0 24 6 24 15 0 9 -8 14 -21 12 -13
-2 -24 5 -30 18 -9 19 -10 19 -21 -7z m-93 -194 c0 -5 -4 -9 -10 -9 -5 0 -10
7 -10 16 0 8 5 12 10 9 6 -3 10 -10 10 -16z"/>
<path d="M710 3630 c0 -5 5 -10 11 -10 5 0 7 5 4 10 -3 6 -8 10 -11 10 -2 0
-4 -4 -4 -10z"/>
<path d="M3511 3624 c0 -11 3 -14 6 -6 3 7 2 16 -1 19 -3 4 -6 -2 -5 -13z"/>
<path d="M300 3577 c0 -8 7 -20 15 -27 12 -10 15 -10 15 3 0 8 -7 20 -15 27
-12 10 -15 10 -15 -3z"/>
<path d="M656 3564 c-4 -9 -4 -19 -1 -22 2 -3 7 3 11 12 4 9 4 19 1 22 -2 3
-7 -3 -11 -12z"/>
<path d="M12 3528 c-7 -7 -12 -31 -12 -55 0 -36 3 -43 20 -43 23 0 26 10 8 29
-10 11 -10 14 0 18 13 5 17 63 4 63 -4 0 -13 -5 -20 -12z"/>
<path d="M282 3505 c-14 -31 -15 -35 -2 -35 15 0 33 41 23 51 -6 6 -14 -1 -21
-16z"/>
<path d="M3525 3498 c-3 -7 -3 -26 -1 -43 3 -16 5 -33 5 -37 3 -28 41 28 41
59 0 19 -39 37 -45 21z m34 -32 c0 -14 -2 -16 -6 -6 -3 8 -10 21 -16 28 -7 9
-6 11 7 6 9 -3 16 -16 15 -28z"/>
<path d="M93 3451 c-39 -19 -43 -35 -8 -29 17 4 25 1 25 -8 0 -8 4 -14 8 -14
5 0 15 -11 22 -25 16 -30 36 -32 45 -5 8 25 -11 51 -31 43 -14 -5 -18 6 -15
40 3 20 -3 20 -46 -2z"/>
<path d="M170 3439 c0 -5 5 -7 10 -4 6 3 10 8 10 11 0 2 -4 4 -10 4 -5 0 -10
-5 -10 -11z"/>
<path d="M2931 3439 c-55 -11 -87 -31 -111 -72 -20 -32 -20 -32 1 -37 l20 -5
-21 -22 c-11 -13 -17 -24 -13 -24 12 -3 36 -6 54 -8 22 -2 20 -31 -3 -31 -10
0 -18 -4 -18 -10 0 -13 70 -13 90 0 11 7 11 10 2 10 -7 0 -11 4 -7 9 3 5 1 12
-4 16 -12 7 23 45 40 45 7 0 29 5 50 12 33 9 39 15 39 40 0 17 5 28 14 28 25
0 46 -12 46 -26 0 -9 11 -14 30 -14 17 0 30 2 30 4 0 2 -21 15 -47 28 -36 17
-65 23 -115 23 -38 0 -68 3 -68 7 0 4 12 14 28 22 30 17 26 18 -37 5z m96 -83
c-4 -9 -11 -16 -17 -16 -17 0 -24 31 -9 41 18 11 34 -5 26 -25z m-113 -12 c10
-26 7 -34 -14 -34 -23 0 -46 36 -27 43 23 10 35 7 41 -9z"/>
<path d="M3140 3421 c24 -20 40 -26 40 -16 0 2 -15 12 -32 20 l-33 16 25 -20z"/>
<path d="M0 3359 c0 -46 4 -56 27 -75 l27 -21 -27 -25 c-32 -30 -33 -38 -8
-65 20 -21 20 -21 0 -26 -14 -4 -19 -14 -19 -37 0 -28 3 -32 22 -27 28 8 48
-9 48 -40 0 -14 4 -21 10 -18 12 7 63 -41 73 -69 5 -12 3 -23 -5 -28 -10 -6
-8 -8 5 -8 9 0 17 5 17 10 0 6 9 19 21 31 l20 20 -27 36 -27 36 39 36 c21 20
53 47 69 61 17 14 45 47 63 74 l33 49 -21 21 -21 21 3 -24 c4 -30 -21 -41 -29
-12 -8 31 -31 9 -44 -43 -6 -23 -24 -57 -41 -76 -17 -19 -37 -45 -46 -58 -23
-35 -67 -14 -92 45 -6 13 -5 42 1 75 6 29 10 66 10 81 0 21 4 27 14 24 9 -4
16 4 20 24 8 37 -2 50 -19 26 -19 -25 -54 -22 -58 5 -2 13 -11 24 -20 26 -15
3 -18 -4 -18 -49z"/>
<path d="M3517 3350 c3 -11 7 -20 9 -20 2 0 4 9 4 20 0 11 -4 20 -9 20 -5 0
-7 -9 -4 -20z"/>
<path d="M180 3340 c0 -5 -6 -7 -14 -4 -14 6 -32 -13 -22 -23 5 -6 76 24 76
32 0 3 -9 5 -20 5 -11 0 -20 -4 -20 -10z"/>
<path d="M10 3000 c-21 -13 -12 -17 47 -22 38 -4 53 -2 53 7 0 20 -74 32 -100
15z"/>
<path d="M400 3000 c0 -5 7 -10 15 -10 18 0 19 -12 3 -28 -16 -16 19 -29 41
-15 28 18 24 40 -10 52 -39 14 -49 14 -49 1z"/>
<path d="M344 2964 c-11 -16 -24 -24 -38 -22 -12 2 -20 7 -18 13 2 5 -5 12
-15 16 -29 12 -46 10 -40 -5 3 -7 1 -18 -5 -24 -8 -8 -4 -14 15 -23 14 -6 28
-18 31 -26 8 -19 -18 -27 -44 -13 -12 6 -24 9 -27 6 -9 -8 18 -37 31 -33 6 2
16 -3 22 -11 9 -13 12 -11 18 11 3 15 13 27 20 27 8 0 23 11 34 25 11 14 29
25 41 25 17 0 21 6 21 30 0 38 -23 40 -46 4z"/>
<path d="M533 2982 c-21 -2 -33 -9 -33 -18 0 -17 23 -18 48 -3 16 10 43 3 105
-29 4 -2 7 0 7 5 0 8 -36 28 -75 41 -11 4 -35 6 -52 4z"/>
<path d="M690 2926 c0 -2 9 -6 20 -9 11 -3 18 -1 14 4 -5 9 -34 13 -34 5z"/>
<path d="M2959 2906 c26 -28 31 -31 31 -17 0 5 -12 17 -27 26 l-28 18 24 -27z"/>
<path d="M3577 2873 c-17 -16 -6 -71 19 -97 50 -49 95 -25 74 41 -7 21 -17 43
-23 48 -7 7 -8 6 -3 -2 4 -8 -2 -7 -21 2 -32 17 -37 18 -46 8z"/>
<path d="M0 2812 c0 -5 9 -17 20 -27 11 -10 20 -24 20 -32 0 -8 11 -13 30 -13
36 0 52 -26 44 -69 -6 -26 -11 -31 -35 -31 -19 0 -29 -5 -29 -15 0 -17 16 -20
25 -5 5 8 12 7 22 -2 12 -10 18 -8 34 12 22 29 22 35 9 60 -5 10 -7 26 -3 35
5 15 8 15 24 -6 16 -22 18 -22 25 -6 3 10 19 24 35 33 32 16 35 30 14 59 -15
19 -15 19 -31 -3 -20 -29 -79 -29 -151 -2 -29 11 -53 16 -53 12z"/>
<path d="M3013 2604 c-7 -3 -9 -12 -6 -20 3 -9 -4 -28 -16 -44 -37 -51 -18
-55 39 -10 21 17 45 30 54 30 17 0 20 8 8 26 -8 13 -61 25 -79 18z"/>
<path d="M3171 2576 c-17 -21 -28 -102 -13 -92 7 4 12 22 12 41 0 18 5 35 12
37 6 2 9 10 7 17 -4 10 -8 10 -18 -3z"/>
<path d="M61 2566 l-24 -14 22 -7 c12 -4 20 -12 18 -18 -5 -14 -58 -12 -67 2
-3 6 -6 -5 -7 -25 -1 -23 6 -43 17 -54 23 -23 20 -109 -4 -122 -18 -10 -21
-45 -6 -82 6 -17 6 -26 0 -26 -13 0 -13 -137 -1 -145 6 -3 14 2 19 12 9 16 11
16 36 -1 15 -9 30 -24 33 -32 7 -18 -16 -66 -29 -58 -4 3 -4 14 2 24 7 13 7
21 0 25 -5 3 -10 -1 -10 -9 0 -19 -13 -20 -41 -6 -18 10 -19 7 -19 -40 l0 -50
39 0 c24 0 46 -7 57 -17 16 -16 15 -18 -7 -26 -13 -5 -31 -13 -39 -18 -8 -5
-23 -12 -32 -15 -17 -6 -18 -59 -18 -935 l0 -929 175 0 175 0 0 24 c0 14 5 28
11 32 6 3 9 19 7 35 -3 16 -1 30 3 31 4 2 -4 26 -18 53 -14 28 -29 68 -33 90
-17 87 -52 200 -76 242 -22 40 -23 47 -11 71 7 15 18 26 25 25 6 -2 9 4 5 13
-3 9 -2 19 3 23 12 8 46 82 40 88 -2 3 -16 -16 -31 -40 -14 -25 -33 -51 -42
-59 -21 -17 -16 -5 32 69 98 152 176 251 236 302 35 29 85 73 110 97 25 24 53
44 63 44 9 0 19 8 22 18 3 9 10 25 15 34 12 23 -5 32 -32 18 -24 -13 -38 -5
-21 12 9 9 6 18 -15 40 -15 15 -21 28 -15 28 7 0 12 5 12 10 0 6 -7 10 -15 10
-8 0 -15 -7 -15 -15 0 -9 -12 -18 -30 -22 -17 -3 -33 -10 -36 -14 -3 -5 -10
-7 -15 -3 -13 7 19 44 38 44 7 0 13 5 13 10 0 13 -23 13 -36 0 -14 -14 -71 -1
-71 16 0 21 23 24 137 18 107 -6 122 -7 233 -2 46 2 70 -2 89 -14 23 -15 29
-16 40 -4 8 7 28 21 45 30 24 12 30 21 26 36 -6 22 6 27 24 9 17 -17 50 6 56
38 7 37 -2 43 -20 16 -18 -26 -33 -30 -33 -8 0 11 -7 14 -22 10 -19 -4 -28 3
-50 37 -27 43 -24 68 9 68 18 0 83 -52 83 -67 0 -6 9 -9 20 -6 19 5 29 23 12
23 -17 0 -113 100 -115 119 -1 22 -13 28 -19 10 -2 -5 -11 -7 -20 -4 -11 5
-16 18 -14 46 1 35 4 39 27 39 17 0 30 -8 38 -23 7 -13 30 -31 50 -40 54 -24
69 -22 41 7 -21 24 -23 35 -9 85 2 9 -5 17 -16 19 -11 2 -27 13 -37 25 -13 17
-19 19 -31 9 -12 -11 -108 -10 -159 1 -20 4 -18 -19 2 -41 12 -12 31 -22 42
-22 17 0 19 -3 10 -12 -10 -10 -17 -10 -33 0 -17 11 -23 11 -32 -1 -7 -8 -24
-17 -39 -21 -27 -6 -40 -36 -17 -36 8 0 8 -4 0 -13 -7 -10 -7 -17 0 -24 8 -8
7 -17 -3 -32 -16 -26 -43 -29 -33 -3 9 22 17 61 9 45 -3 -7 -16 -13 -29 -13
-15 0 -32 -12 -46 -32 -13 -18 -28 -36 -34 -40 -14 -11 -77 2 -96 19 -9 7 -22
11 -30 9 -8 -3 -36 -8 -64 -10 -27 -3 -74 -9 -102 -14 -38 -6 -53 -5 -53 3 0
6 3 15 7 19 11 10 32 109 27 118 -11 17 -32 6 -44 -22 -12 -28 -15 -29 -59
-24 -25 3 -54 7 -64 9 -9 2 -23 -5 -31 -16 -13 -19 -13 -19 -31 1 -16 18 -17
23 -4 46 25 47 137 157 153 151 9 -4 15 -1 13 6 -1 7 10 12 28 13 17 0 29 6
27 12 -2 12 30 17 40 7 3 -3 -6 -27 -20 -54 -16 -30 -23 -54 -19 -66 7 -17 8
-17 27 0 11 10 20 28 20 40 0 12 9 33 19 47 11 13 21 37 23 53 4 39 41 53 95
37 21 -6 48 -14 60 -17 17 -5 23 -14 23 -33 0 -15 7 -36 15 -46 8 -11 15 -30
15 -42 0 -13 5 -26 11 -30 6 -3 10 1 9 12 -4 34 0 44 16 44 8 0 12 5 9 10 -3
6 -3 10 0 10 11 0 44 -44 45 -59 0 -9 6 -11 18 -6 9 5 32 10 50 13 38 5 42 20
7 27 -14 3 -37 7 -51 10 -14 3 -53 32 -88 64 -51 48 -71 59 -109 65 -26 4 -79
18 -119 32 -39 13 -73 22 -76 19 -3 -2 -13 7 -24 20 -11 14 -25 22 -33 18 -10
-3 -15 2 -15 17 0 16 -4 20 -15 16 -9 -3 -29 7 -49 24 -18 17 -39 30 -45 30
-13 0 -44 57 -36 69 2 5 -6 12 -19 15 -32 8 -41 49 -26 119 6 30 10 71 9 93
-1 21 1 63 6 92 8 57 2 63 -44 38z m-14 -262 c7 -20 -8 -36 -25 -25 -14 8 -6
41 9 41 5 0 12 -7 16 -16z m133 -265 c0 -5 -9 -9 -20 -9 -13 0 -18 5 -14 14 6
15 34 11 34 -5z m200 -98 c0 -13 -10 -21 -32 -25 -43 -9 -48 2 -14 29 32 26
46 24 46 -4z m-180 -87 c0 -10 -70 -54 -87 -54 -11 0 0 40 15 52 33 29 72 30
72 2z m846 -132 c-10 -10 -29 15 -21 28 6 9 10 8 17 -4 6 -10 7 -20 4 -24z
m-112 -71 c8 -12 -31 -54 -43 -47 -5 4 -5 15 2 31 12 25 31 33 41 16z m-865
-15 c9 -11 7 -15 -8 -19 -24 -6 -31 0 -24 19 7 18 17 18 32 0z m659 -58 c-19
-28 -45 -45 -55 -35 -7 8 44 56 61 57 5 0 2 -10 -6 -22z m-303 -56 c-3 -3 -11
0 -18 7 -9 10 -8 11 6 5 10 -3 15 -9 12 -12z m65 -28 c0 -8 -4 -14 -10 -14 -5
0 -10 9 -10 21 0 11 5 17 10 14 6 -3 10 -13 10 -21z m85 16 c3 -5 -3 -10 -14
-10 -12 0 -21 5 -21 10 0 6 6 10 14 10 8 0 18 -4 21 -10z m161 -16 c-3 -9 -6
-18 -6 -20 0 -2 -4 -4 -9 -4 -5 0 -7 9 -4 20 3 11 10 20 15 20 6 0 7 -7 4 -16z
m179 -14 c3 -5 1 -10 -4 -10 -6 0 -11 5 -11 10 0 6 2 10 4 10 3 0 8 -4 11 -10z
m-110 -9 c3 -5 1 -12 -5 -16 -13 -8 -13 -25 0 -25 6 0 10 6 10 14 0 13 45 28
55 18 9 -10 5 -48 -7 -60 -13 -13 -59 -16 -95 -6 -18 5 -20 10 -13 35 5 15 11
33 15 39 8 13 32 13 40 1z m-245 -28 c0 -12 -2 -12 -15 1 -8 8 -15 17 -15 20
0 3 7 3 15 0 8 -4 15 -13 15 -21z m-157 -28 c-3 -8 -9 -15 -14 -15 -10 0 -12
24 -3 33 11 11 24 -3 17 -18z m77 13 c0 -7 -4 -18 -8 -25 -11 -17 -36 1 -29
21 7 19 37 22 37 4z m-230 -110 c0 -4 -7 -8 -15 -8 -8 0 -15 4 -15 8 0 5 7 9
15 9 8 0 15 -4 15 -9z m235 -49 c0 -8 -10 -15 -23 -17 -21 -3 -22 -1 -12 18
12 23 35 22 35 -1z m-255 -754 c0 -8 -2 -15 -4 -15 -2 0 -6 7 -10 15 -3 8 -1
15 4 15 6 0 10 -7 10 -15z"/>
<path d="M2935 2490 c-3 -5 -2 -10 4 -10 5 0 13 5 16 10 3 6 2 10 -4 10 -5 0
-13 -4 -16 -10z"/>
<path d="M570 2455 c0 -8 4 -15 9 -15 5 0 11 7 15 15 3 9 0 15 -9 15 -8 0 -15
-7 -15 -15z"/>
<path d="M2672 2400 c0 -14 2 -19 5 -12 2 6 2 18 0 25 -3 6 -5 1 -5 -13z"/>
<path d="M470 2226 c0 -10 61 -48 67 -42 10 10 -28 46 -49 46 -10 0 -18 -2
-18 -4z"/>
<path d="M1079 2214 c-12 -14 -11 -16 5 -13 11 2 21 10 24 17 5 17 -13 15 -29
-4z"/>
<path d="M520 2146 c0 -8 -6 -16 -12 -19 -7 -2 -10 -7 -7 -11 3 -3 14 -4 23 0
17 7 23 44 6 44 -5 0 -10 -6 -10 -14z"/>
<path d="M286 2113 c7 -31 21 -50 29 -41 8 7 -15 68 -26 68 -5 0 -6 -12 -3
-27z"/>
<path d="M590 2110 c0 -5 5 -10 10 -10 6 0 10 5 10 10 0 6 -4 10 -10 10 -5 0
-10 -4 -10 -10z"/>
<path d="M2376 2095 c13 -10 15 -14 5 -15 -8 0 -12 -3 -8 -6 3 -3 10 -3 16 0
14 9 2 36 -17 36 -13 0 -12 -3 4 -15z"/>
<path d="M444 2065 c-10 -25 7 -40 23 -20 7 11 13 22 13 27 0 14 -30 9 -36 -7z"/>
<path d="M2432 1873 c-6 -2 -10 -9 -6 -14 8 -14 21 -11 28 6 6 15 1 17 -22 8z"/>
<path d="M797 1766 c-11 -27 -8 -36 8 -36 16 0 17 5 6 34 -7 18 -8 18 -14 2z"/>
<path d="M693 1759 c-22 -8 -40 -29 -26 -29 5 0 14 5 20 11 8 8 17 8 31 0 24
-13 62 -15 62 -3 0 14 -64 29 -87 21z"/>
<path d="M3327 1555 c9 -224 -23 -456 -69 -513 -6 -7 -8 -15 -6 -18 10 -10 79
81 114 150 43 86 44 135 8 306 -48 227 -53 235 -47 75z"/>
<path d="M545 1660 c-3 -5 -2 -10 4 -10 5 0 13 5 16 10 3 6 2 10 -4 10 -5 0
-13 -4 -16 -10z"/>
<path d="M1268 1643 c7 -3 16 -2 19 1 4 3 -2 6 -13 5 -11 0 -14 -3 -6 -6z"/>
<path d="M1115 1600 c10 -11 23 -20 28 -20 6 0 2 9 -8 20 -10 11 -23 20 -28
20 -6 0 -2 -9 8 -20z"/>
<path d="M1200 1609 c0 -7 -8 -18 -17 -26 -16 -12 -14 -13 20 -7 26 4 44 1 62
-10 29 -19 31 -29 9 -50 -8 -9 -11 -16 -5 -16 6 0 16 9 23 20 7 11 18 20 25
20 29 0 10 27 -29 44 -24 9 -51 21 -60 27 -23 12 -28 11 -28 -2z"/>
<path d="M1208 1553 c7 -3 16 -2 19 1 4 3 -2 6 -13 5 -11 0 -14 -3 -6 -6z"/>
</g>
</svg>
