<?xml version="1.0" encoding="UTF-8" standalone="no"?>
<!-- Created with Inkscape (http://www.inkscape.org/) -->

<svg
   xmlns:dc="http://purl.org/dc/elements/1.1/"
   xmlns:cc="http://creativecommons.org/ns#"
   xmlns:rdf="http://www.w3.org/1999/02/22-rdf-syntax-ns#"
   xmlns:svg="http://www.w3.org/2000/svg"
   xmlns="http://www.w3.org/2000/svg"
   xmlns:sodipodi="http://sodipodi.sourceforge.net/DTD/sodipodi-0.dtd"
   xmlns:inkscape="http://www.inkscape.org/namespaces/inkscape"
   version="1.1"
   id="svg2"
   xml:space="preserve"
   width="114.06667"
   height="40.68"
   viewBox="0 0 114.06667 40.68"
   sodipodi:docname="logo_rgb.svg"
   inkscape:version="0.92.2 (5c3e80d, 2017-08-06)"><metadata
     id="metadata8"><rdf:RDF><cc:Work
         rdf:about=""><dc:format>image/svg+xml</dc:format><dc:type
           rdf:resource="http://purl.org/dc/dcmitype/StillImage" /><dc:title></dc:title></cc:Work></rdf:RDF></metadata><defs
     id="defs6" /><sodipodi:namedview
     pagecolor="#ffffff"
     bordercolor="#666666"
     borderopacity="1"
     objecttolerance="10"
     gridtolerance="10"
     guidetolerance="10"
     inkscape:pageopacity="0"
     inkscape:pageshadow="2"
     inkscape:window-width="2560"
     inkscape:window-height="1377"
     id="namedview4"
     showgrid="false"
     inkscape:zoom="3.0683809"
     inkscape:cx="16.458191"
     inkscape:cy="20.34"
     inkscape:window-x="1912"
     inkscape:window-y="-8"
     inkscape:window-maximized="1"
     inkscape:current-layer="g10" /><g
     id="g10"
     inkscape:groupmode="layer"
     inkscape:label="ink_ext_XXXXXX"
     transform="matrix(1.3333333,0,0,-1.3333333,0,40.68)"><g
       id="g12"
       transform="scale(0.1)"><path
         d="m 204.434,221.805 c -15.532,18.937 -39.008,30.312 -62.856,30.312 -53.371,0 -84.0507,-49.207 -84.0507,-98.445 0,-48.067 31.8086,-96.1525 83.6837,-96.1525 23.844,0 47.691,12.5078 63.223,30.293 V 21.5703 C 183.609,11.7266 162.77,4.54297 139.688,4.54297 59.4336,4.54297 0,73.8086 0,152.539 c 0,81.016 57.1641,152.559 140.82,152.559 22.332,0 44.293,-6.055 63.614,-16.653 v -66.64"
         style="fill:#858986;fill-opacity:1;fill-rule:nonzero;stroke:none"
         id="path14"
         inkscape:connector-curvature="0" /><path
         d="m 425.129,97.6445 c 12.469,15.5315 17.762,39.3755 17.762,59.0545 0,46.211 -33.672,95.418 -83.645,95.418 -54.109,0 -83.652,-51.121 -83.652,-100.312 0,-47.352 29.14,-93.5355 83.652,-93.5355 10.207,0 22.324,4.5743 29.895,9.4922 l -46.926,54.1333 57.531,4.539 z M 449.715,0 430.039,23.8398 C 410.723,10.957 385.359,4.54297 359.246,4.54297 c -83.281,0 -141.191,68.89453 -141.191,150.64103 0,79.894 57.91,149.914 141.191,149.914 83.274,0 141.203,-70.02 141.203,-149.914 0,-38.59 -11.738,-74.9418 -33.703,-103.3402 L 505.73,5.67578 449.715,0"
         style="fill:#f46a36;fill-opacity:1;fill-rule:nonzero;stroke:none"
         id="path16"
         inkscape:connector-curvature="0" /><path
         d="m 652.629,234.688 c -10.609,14.382 -24.242,23.484 -42.785,23.484 -17.793,0 -34.817,-13.641 -34.817,-32.188 0,-48.074 113.188,-28.023 113.188,-123.777 0,-57.1679 -35.586,-97.66403 -93.899,-97.66403 -39.355,0 -68.136,22.70313 -87.812,55.64063 l 35.965,35.1992 c 7.558,-21.9453 27.629,-41.6445 51.476,-41.6445 22.696,0 36.719,19.3164 36.719,41.2617 0,29.543 -27.258,37.859 -49.578,46.563 -36.731,15.136 -63.617,33.699 -63.617,77.996 0,47.316 35.215,85.539 83.285,85.539 25.367,0 60.586,-12.493 77.996,-31.789 l -26.121,-38.621"
         style="fill:#858986;fill-opacity:1;fill-rule:nonzero;stroke:none"
         id="path18"
         inkscape:connector-curvature="0" /><path
         d="m 763.547,249.07 v -62.84 h 88.562 V 137.793 H 763.547 V 60.5742 h 91.969 V 12.0781 H 707.883 V 297.52 h 147.633 v -48.45 h -91.969"
         style="fill:#858986;fill-opacity:1;fill-rule:nonzero;stroke:none"
         id="path20"
         inkscape:connector-curvature="0" /></g></g></svg>